<?xml version="1.0" standalone="no"?>
<!DOCTYPE svg PUBLIC "-//W3C//DTD SVG 20010904//EN"
 "http://www.w3.org/TR/2001/REC-SVG-20010904/DTD/svg10.dtd">
<svg version="1.0" xmlns="http://www.w3.org/2000/svg"
 width="67.000000pt" height="63.000000pt" viewBox="0 0 67.000000 63.000000"
 preserveAspectRatio="xMidYMid meet">
<metadata>
Created by potrace 1.11, written by Peter Selinger 2001-2013
</metadata>
<g transform="translate(0.000000,63.000000) scale(0.100000,-0.100000)"
fill="#000000" stroke="none">
<path d="M263 460 c-45 -27 -66 -64 -66 -116 0 -100 107 -162 208 -120 69 29
96 126 55 194 -36 60 -134 81 -197 42z m120 -14 c98 -41 98 -162 0 -203 -102
-42 -207 78 -141 162 20 26 69 54 96 55 7 0 27 -6 45 -14z"/>
<path d="M260 395 c-14 -17 -7 -43 15 -50 49 -16 49 -15 36 -28 -9 -9 -16 -9
-31 1 -26 16 -30 15 -30 -3 0 -32 66 -38 90 -10 15 19 -5 55 -30 55 -20 0 -36
17 -26 28 4 3 16 0 27 -7 24 -14 34 -9 26 14 -8 19 -61 20 -77 0z"/>
<path d="M360 350 l0 -60 35 0 c19 0 35 5 35 10 0 6 -9 10 -20 10 -17 0 -20 7
-20 50 0 38 -4 50 -15 50 -12 0 -15 -13 -15 -60z"/>
<path d="M113 314 c19 -176 267 -247 394 -113 53 57 84 159 48 159 -10 0 -15
-10 -15 -32 -1 -72 -68 -146 -154 -169 -110 -30 -246 60 -246 164 0 27 -4 37
-16 37 -14 0 -16 -8 -11 -46z"/>
<path d="M150 340 c0 -27 26 -89 48 -114 72 -81 237 -69 297 23 31 47 44 111
22 111 -9 0 -17 -14 -21 -41 -13 -83 -110 -142 -195 -119 -69 18 -121 76 -121
135 0 16 -6 25 -15 25 -8 0 -15 -9 -15 -20z"/>
</g>
</svg>
